<?xml version="1.0" encoding="utf-8"?>
<!-- Generated by IcoMoon.io -->
<!DOCTYPE svg PUBLIC "-//W3C//DTD SVG 1.1//EN" "http://www.w3.org/Graphics/SVG/1.1/DTD/svg11.dtd">
<svg version="1.1" xmlns="http://www.w3.org/2000/svg" xmlns:xlink="http://www.w3.org/1999/xlink" width="32" height="32" viewBox="0 0 32 32">
<path d="M23.171 26.486c1.307-0.886 2.43-1.99 3.343-3.287l4.576 4.576-3.315 3.315-4.604-4.604zM0.91 27.775l4.564-4.564c0.913 1.296 2.036 2.4 3.343 3.287l-4.592 4.592-3.315-3.315zM26.667 8.648c-0.889-1.309-1.991-2.434-3.283-3.347l4.391-4.391 3.315 3.315-4.423 4.423zM0.91 4.225l3.315-3.315 4.385 4.385c-1.291 0.914-2.394 2.038-3.283 3.347l-4.418-4.417zM16 5.166c-5.886 0-10.658 4.772-10.658 10.658 0 4.333 2.586 8.062 6.299 9.728v2.608c0.26 0.436 0.974 0.751 1.889 0.945v-1.502h1.465v1.701c0.665 0.048 1.362 0.047 2.027-0.001v-1.699h1.465v1.498c0.907-0.195 1.613-0.508 1.871-0.941v-2.608c3.713-1.666 6.299-5.395 6.299-9.728 0-5.886-4.771-10.657-10.658-10.657zM11.33 19.815c-1.872 0-3.39-1.518-3.39-3.39s1.518-3.39 3.39-3.39 3.39 1.518 3.39 3.39-1.518 3.39-3.39 3.39zM13.823 22.493l2.245-3.104 0.002 0.004 0.002-0.004 2.252 3.104h-4.501zM20.816 19.815c-1.872 0-3.39-1.518-3.39-3.39s1.518-3.39 3.39-3.39c1.872 0 3.39 1.518 3.39 3.39s-1.518 3.39-3.39 3.39z" fill="#ffffff"></path>
</svg>
