<?xml version="1.0" encoding="utf-8"?>
<!-- Generated by IcoMoon.io -->
<!DOCTYPE svg PUBLIC "-//W3C//DTD SVG 1.1//EN" "http://www.w3.org/Graphics/SVG/1.1/DTD/svg11.dtd">
<svg version="1.1" xmlns="http://www.w3.org/2000/svg" xmlns:xlink="http://www.w3.org/1999/xlink" width="32" height="32" viewBox="0 0 32 32">
<path d="M16.295 1.364c-0 0-0.001 0-0.001 0-8.402 0-15.214 6.481-15.214 14.476 0 0 0 0.001 0 0.001 0 7.995 6.811 14.475 15.214 14.475 0 0 0.001 0 0.001 0 8.402-0 15.213-6.481 15.213-14.475 0-0 0-0.001 0-0.001 0-7.995-6.811-14.475-15.213-14.476zM17.998 2.841c0 0 0 0 0 0 6.897 0 12.489 5.82 12.489 13 0 0 0 0 0 0-0.001 7.179-5.592 12.999-12.489 12.999 0 0 0 0 0 0s0 0 0 0c-6.897 0-12.488-5.819-12.489-12.998 0-0 0-0 0-0 0-7.179 5.591-13 12.489-13 0 0 0 0 0 0z" fill="#ffffff"></path>
</svg>
