<?xml version="1.0" encoding="utf-8"?>
<!-- Generated by IcoMoon.io -->
<!DOCTYPE svg PUBLIC "-//W3C//DTD SVG 1.1//EN" "http://www.w3.org/Graphics/SVG/1.1/DTD/svg11.dtd">
<svg version="1.1" xmlns="http://www.w3.org/2000/svg" xmlns:xlink="http://www.w3.org/1999/xlink" width="32" height="32" viewBox="0 0 32 32">
<path d="M17.713 18.58c0.047 0.224 0.044 0.461-0.023 0.686-0.056 0.212-0.171 0.411-0.326 0.576-0.529 0.534-1.393 0.548-1.932 0.027l-2.947-2.888-0.517 0.634 2.948 2.887c0.731 0.711 2.32 0.666 3.039-0.064 0.249-0.253 0.6-0.831 0.674-1.165l6.59 0.006c0.76 0 1.513 0.709 1.513 1.467 0 0.765-0.5 1.7-1.545 1.7h-10.839c-0.489-0.015-1.1-0.265-1.528-0.627l-6.177-4.712-6.291 0.014 0.002-5.308h9.735c0 0 0.718 0.017 1.213 0.303 0.455 0.268 0.862 0.656 0.862 0.656l5.167 5.148c0.188 0.179 0.319 0.406 0.382 0.661z" fill="#ffffff"></path>
<path d="M9.47 9.446c0 0.637-0.516 1.153-1.153 1.153s-1.153-0.516-1.153-1.153c0-0.637 0.516-1.153 1.153-1.153s1.153 0.516 1.153 1.153z" fill="#ffffff"></path>
<path d="M12.763 10.27c0 0.637-0.516 1.153-1.153 1.153s-1.153-0.516-1.153-1.153c0-0.637 0.516-1.153 1.153-1.153s1.153 0.516 1.153 1.153z" fill="#ffffff"></path>
<path d="M12.558 6.956c0 0.637-0.516 1.153-1.153 1.153s-1.153-0.516-1.153-1.153c0-0.637 0.516-1.153 1.153-1.153s1.153 0.516 1.153 1.153z" fill="#ffffff"></path>
<path d="M15.48 8.232c0 0.637-0.516 1.153-1.153 1.153s-1.153-0.516-1.153-1.153c0-0.637 0.516-1.153 1.153-1.153s1.153 0.516 1.153 1.153z" fill="#ffffff"></path>
<path d="M16.324 11.114c0 0.637-0.516 1.153-1.153 1.153s-1.153-0.516-1.153-1.153c0-0.637 0.516-1.153 1.153-1.153s1.153 0.516 1.153 1.153z" fill="#ffffff"></path>
<path d="M17.188 14.057c0 0.637-0.516 1.153-1.153 1.153s-1.153-0.516-1.153-1.153c0-0.637 0.516-1.153 1.153-1.153s1.153 0.516 1.153 1.153z" fill="#ffffff"></path>
<path d="M20.193 12.143c0 0.637-0.516 1.153-1.153 1.153s-1.153-0.516-1.153-1.153c0-0.637 0.516-1.153 1.153-1.153s1.153 0.516 1.153 1.153z" fill="#ffffff"></path>
<path d="M20.419 15.209c0 0.637-0.516 1.153-1.153 1.153s-1.153-0.516-1.153-1.153c0-0.637 0.516-1.153 1.153-1.153s1.153 0.516 1.153 1.153z" fill="#ffffff"></path>
<path d="M22.602 17.35c0 0.637-0.516 1.153-1.153 1.153s-1.153-0.516-1.153-1.153c0-0.637 0.516-1.153 1.153-1.153s1.153 0.516 1.153 1.153z" fill="#ffffff"></path>
<path d="M23.343 13.934c0 0.637-0.516 1.153-1.153 1.153s-1.153-0.516-1.153-1.153c0-0.637 0.516-1.153 1.153-1.153s1.153 0.516 1.153 1.153z" fill="#ffffff"></path>
<path d="M25.853 16.917c0 0.637-0.516 1.153-1.153 1.153s-1.153-0.516-1.153-1.153c0-0.637 0.516-1.153 1.153-1.153s1.153 0.516 1.153 1.153z" fill="#ffffff"></path>
<path d="M29.023 18.626c0 0.636-0.516 1.152-1.152 1.152s-1.152-0.516-1.152-1.152c0-0.636 0.516-1.152 1.152-1.152s1.152 0.516 1.152 1.152z" fill="#ffffff"></path>
<path d="M29.126 15.478c0 0.636-0.516 1.152-1.152 1.152s-1.153-0.516-1.153-1.152c0-0.637 0.516-1.153 1.153-1.153s1.152 0.516 1.152 1.153z" fill="#ffffff"></path>
<path d="M26.285 10.578c0 0.637-0.516 1.153-1.153 1.153s-1.153-0.516-1.153-1.153c0-0.637 0.516-1.153 1.153-1.153s1.153 0.516 1.153 1.153z" fill="#ffffff"></path>
<path d="M21.119 4.918c0 0.637-0.516 1.153-1.153 1.153s-1.153-0.516-1.153-1.153c0-0.637 0.516-1.153 1.153-1.153s1.153 0.516 1.153 1.153z" fill="#ffffff"></path>
<path d="M14.656 4.301c0 0.637-0.516 1.153-1.153 1.153s-1.153-0.516-1.153-1.153c0-0.637 0.516-1.153 1.153-1.153s1.153 0.516 1.153 1.153z" fill="#ffffff"></path>
<path d="M17.95 2.819c0 0.637-0.516 1.153-1.153 1.153s-1.153-0.516-1.153-1.153c0-0.637 0.516-1.153 1.153-1.153s1.153 0.516 1.153 1.153z" fill="#ffffff"></path>
<path d="M30.876 22.619c0 0.637-0.516 1.153-1.153 1.153s-1.153-0.516-1.153-1.153c0-0.637 0.516-1.153 1.153-1.153s1.153 0.516 1.153 1.153z" fill="#ffffff"></path>
<path d="M30.876 29.288c0 0.637-0.516 1.153-1.153 1.153s-1.153-0.516-1.153-1.153c0-0.637 0.516-1.153 1.153-1.153s1.153 0.516 1.153 1.153z" fill="#ffffff"></path>
<path d="M26.285 13.727c0 0.637-0.516 1.153-1.153 1.153s-1.153-0.516-1.153-1.153c0-0.637 0.516-1.153 1.153-1.153s1.153 0.516 1.153 1.153z" fill="#ffffff"></path>
<path d="M23.136 10.743c0 0.637-0.516 1.153-1.153 1.153s-1.153-0.516-1.153-1.153c0-0.637 0.516-1.153 1.153-1.153s1.153 0.516 1.153 1.153z" fill="#ffffff"></path>
<path d="M21.922 7.903c0 0.637-0.516 1.153-1.153 1.153s-1.153-0.516-1.153-1.153c0-0.637 0.516-1.153 1.153-1.153s1.153 0.516 1.153 1.153z" fill="#ffffff"></path>
<path d="M17.95 6.153c0 0.637-0.516 1.153-1.153 1.153s-1.153-0.516-1.153-1.153c0-0.637 0.516-1.153 1.153-1.153s1.153 0.516 1.153 1.153z" fill="#ffffff"></path>
<path d="M19.020 9.282c0 0.637-0.516 1.153-1.153 1.153s-1.153-0.516-1.153-1.153c0-0.637 0.516-1.153 1.153-1.153s1.153 0.516 1.153 1.153z" fill="#ffffff"></path>
</svg>
