<?xml version="1.0" encoding="utf-8"?>
<!-- Generated by IcoMoon.io -->
<!DOCTYPE svg PUBLIC "-//W3C//DTD SVG 1.1//EN" "http://www.w3.org/Graphics/SVG/1.1/DTD/svg11.dtd">
<svg version="1.1" xmlns="http://www.w3.org/2000/svg" xmlns:xlink="http://www.w3.org/1999/xlink" width="32" height="32" viewBox="0 0 32 32">
<path d="M24.513 2.253c-0.705-0.407-1.526-0.614-2.437-0.614-3.639 0-8.35 3.452-10.131 6.538-0.151 0.261-0.281 0.532-0.402 0.81-0.888-0.589-1.804-0.893-2.739-0.893-4.655 0-7.922 7.405-7.922 11.415 0 4.368 3.553 7.922 7.922 7.922 1.652 0 3.235-0.519 4.565-1.464 1.435 2.293 3.962 3.723 6.714 3.723 4.009 0 11.415-3.267 11.415-7.922 0-2.779-2.68-5.041-5.465-6.386 1.729-3.757 2.255-10.949-1.521-13.129zM13.493 9.071c1.476-2.557 5.633-5.646 8.584-5.646 0.594 0 1.114 0.126 1.544 0.374 1.214 0.701 1.927 2.53 1.956 5.018 0.024 2.055-0.429 4.273-1.189 5.872-0.023-0.008-0.046-0.014-0.068-0.022-0.33-0.117-0.658-0.221-0.985-0.314-0.039-0.011-0.079-0.024-0.118-0.035-0.33-0.091-0.654-0.167-0.974-0.232-0.061-0.012-0.121-0.025-0.181-0.036-0.314-0.060-0.621-0.107-0.921-0.141-0.051-0.006-0.1-0.009-0.151-0.014-0.31-0.030-0.615-0.050-0.904-0.050-0.222 0-0.442 0.012-0.662 0.031-0.067 0.005-0.133 0.014-0.2 0.021-0.157 0.017-0.313 0.039-0.468 0.066-0.070 0.012-0.139 0.024-0.209 0.037-0.172 0.035-0.342 0.075-0.511 0.12-0.043 0.012-0.087 0.021-0.129 0.033-0.21 0.061-0.415 0.13-0.619 0.207-0.052 0.020-0.103 0.043-0.156 0.064-0.152 0.062-0.304 0.127-0.452 0.199-0.064 0.031-0.129 0.062-0.192 0.095-0.143 0.074-0.284 0.152-0.423 0.234-0.053 0.032-0.106 0.061-0.158 0.093-0.021 0.013-0.044 0.025-0.064 0.038-0.070-0.192-0.145-0.38-0.222-0.568-0.015-0.036-0.027-0.073-0.042-0.108-0.114-0.276-0.236-0.545-0.364-0.811-0.036-0.075-0.073-0.146-0.11-0.22-0.097-0.195-0.197-0.387-0.3-0.575-0.044-0.079-0.087-0.158-0.131-0.236-0.119-0.208-0.241-0.411-0.367-0.608-0.026-0.041-0.050-0.083-0.076-0.123-0.152-0.233-0.309-0.457-0.469-0.672-0.043-0.058-0.088-0.112-0.131-0.169-0.123-0.159-0.246-0.312-0.372-0.459-0.053-0.062-0.106-0.123-0.16-0.183-0.039-0.044-0.077-0.091-0.117-0.134 0.132-0.402 0.303-0.786 0.512-1.148zM8.807 25.647c-3.383 0-6.136-2.753-6.136-6.137 0-3.622 2.972-9.629 6.136-9.629 0.833 0 1.694 0.418 2.557 1.241 0.16 0.152 0.317 0.319 0.472 0.496 0.049 0.055 0.095 0.118 0.143 0.176 0.105 0.127 0.211 0.254 0.314 0.391 0.056 0.075 0.11 0.156 0.165 0.234 0.092 0.129 0.183 0.258 0.271 0.395 0.057 0.088 0.112 0.18 0.168 0.271 0.083 0.135 0.165 0.27 0.245 0.41 0.055 0.098 0.108 0.198 0.161 0.298 0.075 0.141 0.15 0.283 0.222 0.429 0.052 0.105 0.101 0.211 0.151 0.318 0.068 0.146 0.134 0.294 0.198 0.443 0.047 0.11 0.092 0.221 0.136 0.333 0.060 0.151 0.117 0.303 0.173 0.456 0.041 0.114 0.082 0.227 0.12 0.342 0.021 0.063 0.039 0.126 0.060 0.189-0.020 0.021-0.037 0.046-0.057 0.067-0.215 0.23-0.42 0.469-0.607 0.723-1.005 1.37-1.536 2.987-1.536 4.676 0 0.251 0.015 0.501 0.039 0.748 0.007 0.078 0.019 0.155 0.029 0.232 0.021 0.172 0.048 0.343 0.080 0.513 0.017 0.086 0.035 0.172 0.054 0.258 0.038 0.168 0.084 0.336 0.133 0.502 0.023 0.075 0.043 0.151 0.067 0.226 0.009 0.028 0.015 0.057 0.025 0.085-1.079 0.852-2.402 1.315-3.784 1.315zM29.715 21.769c0 3.163-6.007 6.136-9.629 6.136-2.43 0-4.634-1.441-5.616-3.67-0.345-0.784-0.52-1.614-0.52-2.466 0-1.307 0.411-2.558 1.189-3.62 0.248-0.338 0.53-0.649 0.839-0.929 1.133-1.024 2.592-1.589 4.108-1.589 0.464 0 0.978 0.051 1.52 0.149 0.905 0.162 1.888 0.453 2.852 0.849 0 0 0 0 0 0 2.425 0.997 5.257 2.941 5.257 5.139z" fill="#ffffff"></path>
<path d="M23.592 17.882c-0.456-0.187-0.978 0.030-1.165 0.486s0.030 0.978 0.486 1.165c2.614 1.074 3.698 2.442 3.709 2.83 0 0.493 0.399 0.893 0.893 0.893s0.893-0.399 0.893-0.893c0-1.497-1.935-3.298-4.816-4.482z" fill="#ffffff"></path>
</svg>
