<?xml version="1.0" encoding="utf-8"?>
<!-- Generated by IcoMoon.io -->
<!DOCTYPE svg PUBLIC "-//W3C//DTD SVG 1.1//EN" "http://www.w3.org/Graphics/SVG/1.1/DTD/svg11.dtd">
<svg version="1.1" xmlns="http://www.w3.org/2000/svg" xmlns:xlink="http://www.w3.org/1999/xlink" width="32" height="32" viewBox="0 0 32 32">
<path d="M23.249 12.892c0 0-1.142 0.506-1.363 1.884-0.011-0.001-0.022-0.003-0.033-0.003h-1.266c-0.265 0-0.48 0.195-0.48 0.437s0.215 0.437 0.48 0.437h1.266c0.008 0 0.015-0.002 0.023-0.002 0.194 1.418 1.373 1.883 1.373 1.883s-1.402-2.285 0-4.635z" fill="#ffffff"></path>
<path d="M20.554 11.935c0 0-1.314 0.755-1.494 2.841-0.010 0-0.019-0.002-0.028-0.002h-1.266c-0.265 0-0.48 0.195-0.48 0.437s0.214 0.437 0.48 0.437h1.266c0.007 0 0.014-0.002 0.021-0.002 0.149 2.146 1.501 2.84 1.501 2.84s-1.516-3.229 0-6.55z" fill="#ffffff"></path>
<path d="M17.745 11.238c0 0-1.488 0.939-1.658 3.541-0.021-0.003-0.041-0.006-0.063-0.006h-1.266c-0.265 0-0.48 0.195-0.48 0.437s0.215 0.437 0.48 0.437h1.266c0.020 0 0.039-0.003 0.059-0.005 0.134 2.676 1.661 3.54 1.661 3.54s-1.674-3.915 0-7.944z" fill="#ffffff"></path>
<path d="M14.777 10.172c0 0-1.797 1.22-1.965 4.6h-1.233c-0.265 0-0.48 0.195-0.48 0.437s0.215 0.437 0.48 0.437h1.228c0.125 3.48 1.97 4.6 1.97 4.6s-1.982-4.965 0-10.074z" fill="#ffffff"></path>
<path d="M11.502 10.233c0 0-1.805 1.204-1.976 4.543-0.011-0.001-0.022-0.003-0.033-0.003h-1.266c-0.265 0-0.48 0.195-0.48 0.437s0.215 0.437 0.48 0.437h1.266c0.010 0 0.019-0.002 0.028-0.002 0.127 3.436 1.981 4.542 1.981 4.542s-1.993-4.906 0-9.953z" fill="#ffffff"></path>
<path d="M30.413 9.943c-2.659 1.259-5.016 3.453-5.635 4.83-0.003 0-0.006-0.001-0.010-0.001h-1.266c-0.265 0-0.48 0.195-0.48 0.437s0.214 0.437 0.48 0.437h1.266c0.003 0 0.007-0.001 0.010-0.001 0.62 1.377 2.976 3.572 5.635 4.831 0 0 0.478-2.255-1.634-5.267 2.111-3.011 1.634-5.266 1.634-5.266z" fill="#ffffff"></path>
<path d="M7.403 15.21c0-2.344 0.696-4.927 0.696-4.927s-6.63 1.945-6.63 4.928c0 2.983 6.63 4.928 6.63 4.928s-0.696-2.583-0.696-4.928v-0.001zM4.521 14.873c-0.428 0-0.775-0.347-0.775-0.775s0.347-0.775 0.775-0.775c0.428 0 0.775 0.347 0.775 0.775s-0.347 0.775-0.775 0.775z" fill="#ffffff"></path>
</svg>
