<?xml version="1.0" encoding="utf-8"?>
<!-- Generated by IcoMoon.io -->
<!DOCTYPE svg PUBLIC "-//W3C//DTD SVG 1.1//EN" "http://www.w3.org/Graphics/SVG/1.1/DTD/svg11.dtd">
<svg version="1.1" xmlns="http://www.w3.org/2000/svg" xmlns:xlink="http://www.w3.org/1999/xlink" width="32" height="32" viewBox="0 0 32 32">
<path d="M15.855 1.468c-8.402 0-15.213 6.481-15.213 14.475s6.811 14.475 15.213 14.475c8.402-0 15.213-6.481 15.213-14.475s-6.811-14.475-15.213-14.475zM17.6 2.946c6.878 0.025 12.445 5.834 12.446 12.997 0 0 0 0 0 0 0 7.179-5.591 13-12.489 13 0 0 0 0 0 0-0.297-0.013-0.567-0.034-0.834-0.064 5.985-1.551 9.914-6.783 9.916-12.994-0.003-6.081-3.771-11.223-8.951-12.914z" fill="#ffffff"></path>
</svg>
