<?xml version="1.0" encoding="utf-8"?>
<!-- Generated by IcoMoon.io -->
<!DOCTYPE svg PUBLIC "-//W3C//DTD SVG 1.1//EN" "http://www.w3.org/Graphics/SVG/1.1/DTD/svg11.dtd">
<svg version="1.1" xmlns="http://www.w3.org/2000/svg" xmlns:xlink="http://www.w3.org/1999/xlink" width="32" height="32" viewBox="0 0 32 32">
<path d="M30.181 13.519c-0.851-0.94-2.196-1.461-3.619-2.012-0.744-0.288-1.968-0.762-2.325-1.085-0.082-0.22-0.104-0.48 0.12-0.847 0.134-0.22 0.313-0.41 0.503-0.568 0.359 0.193 0.77 0.303 1.206 0.303 1.406 0 2.546-1.14 2.546-2.546s-1.14-2.546-2.546-2.546c-0.109 0-0.213 0.009-0.318 0.022-1.781 0.069-3.827 1.307-4.921 2.999-1.014 1.57-1.16 3.35-0.411 5.012 0.772 1.713 2.727 2.47 4.618 3.202 0.695 0.269 1.742 0.674 2.021 0.918 0.277 0.317 0.257 0.697 0.154 0.928-0.231 0.523-0.917 0.601-1.305 0.601-2.158 0-4.253-1.581-6.473-3.255-0.308-0.233-0.619-0.467-0.931-0.697v-6.044c0.707-0.412 1.189-1.169 1.189-2.048 0-0.803-0.406-1.503-1.016-1.932-0.041-0.029-0.083-0.057-0.125-0.084-0.016-0.010-0.031-0.022-0.047-0.032h-0.005c-0.353-0.209-0.764-0.331-1.203-0.331-1.31 0-2.37 1.061-2.37 2.37 0 0.883 0.484 1.652 1.2 2.059v4.445c-1.402-0.811-2.88-1.38-4.499-1.38-3.674 0-5.475 3.083-6.666 5.123-0.334 0.571-0.814 1.394-1.135 1.734-0.058-0.033-0.133-0.082-0.222-0.149-0.94-0.694-2.265-0.496-2.959 0.444s-0.496 2.264 0.444 2.959c0.944 0.698 1.89 1.049 2.82 1.049 0.25 0 0.5-0.026 0.748-0.077 1.959-0.402 2.975-2.144 3.958-3.827 1.099-1.882 1.851-3.025 3.012-3.025 1.318 0 2.859 1.030 4.499 2.249v5.933c0 1.639-1.333 2.972-2.972 2.972s-2.972-1.333-2.972-2.972c0-0.57 0.054-0.969 0.366-1.422 0.195-0.283 0.394-0.355 0.548-0.371 0.48-0.050 0.795 0.921 0.795 0.921v-6.828l-3.287 4.901c-0.503 0.816-0.8 1.773-0.8 2.8 0 2.95 2.399 5.35 5.349 5.35s5.349-2.4 5.349-5.35v-4.166c2.152 1.533 4.563 2.912 7.404 2.912 2.373 0 4.307-1.164 5.172-3.115 0.816-1.837 0.464-3.995-0.895-5.497zM17.358 5.179c0.342 0 0.62 0.277 0.62 0.62s-0.278 0.62-0.62 0.62c-0.343 0-0.62-0.278-0.62-0.62s0.277-0.62 0.62-0.62z" fill="#ffffff"></path>
</svg>
