<?xml version="1.0" encoding="utf-8"?>
<!-- Generated by IcoMoon.io -->
<!DOCTYPE svg PUBLIC "-//W3C//DTD SVG 1.1//EN" "http://www.w3.org/Graphics/SVG/1.1/DTD/svg11.dtd">
<svg version="1.1" xmlns="http://www.w3.org/2000/svg" xmlns:xlink="http://www.w3.org/1999/xlink" width="32" height="32" viewBox="0 0 32 32">
<path d="M20.765 19.598c-3.222 3.803-6.54 4.047-6.524 4.278-1.166-8.862 4.466-15.377 4.466-15.377-1.192 1.183-2.158 2.428-2.94 3.702 0.054-0.090 0.091-0.151 0.091-0.151-1.37-1.161-2.104-4.714-2.104-4.714 0.322 4.195 1.485 5.779 1.485 5.779 0.104-0.198 0.284-0.505 0.423-0.739-1.19 1.987-1.931 4.040-2.364 6.036 0.019-0.096 0.031-0.157 0.031-0.157-0.774-2.315-3.447-4.143-3.447-4.143 2.13 2.194 3.121 5.944 3.121 5.944 0.011-0.083 0.033-0.22 0.061-0.381-1.028 6.562 1.050 12.178 1.050 12.178h3.022c-1.43-2.349-2.273-4.632-2.7-6.791 0.040 0.178 0.069 0.28 0.069 0.28 3.355-1.549 6.259-5.743 6.259-5.743z" fill="#ffffff"></path>
<path d="M16.567 19.925c0 0-1.285-9.183 14.89-8.995 0 0-1.852 14.020-11.64 12.962 0 0 3.59-3.007 3.59-6.454 0 0-2.76-1.064-6.84 2.487z" fill="#ffffff"></path>
<path d="M9.746 16.671c0 0-7.345 1.522-8.048-11.542 0 0 11.414 0.752 11.078 8.708 0 0-2.617-2.738-5.399-2.556 0 0-0.713 2.285 2.369 5.389z" fill="#ffffff"></path>
<path d="M16.543 8.269c0 0-1.264-5.643 8.802-6.346 0 0-0.441 8.81-6.58 8.649 0 0 2.079-2.052 1.905-4.195 0 0-1.771-0.523-4.127 1.891z" fill="#ffffff"></path>
<path d="M12.575 8.294c0 0-3.971-1.404-0.51-7.885 0 0 5.265 3.681 2.79 7.405 0 0-0.461-2.076-1.851-2.798 0 0-1.007 0.891-0.429 3.278z" fill="#ffffff"></path>
</svg>
